<svg xmlns="http://www.w3.org/2000/svg" viewBox="0 0 18 20.25">
  <defs>
    <style>
      .cls-1, .cls-3 {
        fill: none;
      }

      .cls-2, .cls-5 {
        fill: #262626;
      }

      .cls-2 {
        font-size: 8px;
        font-family: HelveticaNeue-Bold, Helvetica Neue;
        font-weight: 700;
      }

      .cls-3 {
        stroke: #262626;
        stroke-linecap: round;
        stroke-width: 1.5px;
      }

      .cls-4, .cls-5 {
        stroke: none;
      }
    </style>
  </defs>
  <g id="calendar" transform="translate(-41 -625.75)">
    <g id="Path_198" data-name="Path 198" class="cls-1" transform="translate(41 628)">
      <path class="cls-4" d="M3,0H15a3,3,0,0,1,3,3V15a3,3,0,0,1-3,3H3a3,3,0,0,1-3-3V3A3,3,0,0,1,3,0Z"/>
      <path class="cls-5" d="M 3 1.5 C 2.172900199890137 1.5 1.5 2.172900199890137 1.5 3 L 1.5 15 C 1.5 15.82709980010986 2.172900199890137 16.5 3 16.5 L 15 16.5 C 15.82709980010986 16.5 16.5 15.82709980010986 16.5 15 L 16.5 3 C 16.5 2.172900199890137 15.82709980010986 1.5 15 1.5 L 3 1.5 M 3 0 L 15 0 C 16.65685081481934 0 18 1.343149185180664 18 3 L 18 15 C 18 16.65685081481934 16.65685081481934 18 15 18 L 3 18 C 1.343149185180664 18 0 16.65685081481934 0 15 L 0 3 C 0 1.343149185180664 1.343149185180664 0 3 0 Z"/>
    </g>
    <text id="_30" data-name="30" class="cls-2" transform="translate(50 640)"><tspan x="-4.448" y="0">30</tspan></text>
    <line id="Line_14" data-name="Line 14" class="cls-3" y2="5" transform="translate(47.5 626.5)"/>
    <line id="Line_15" data-name="Line 15" class="cls-3" y2="5" transform="translate(52.5 626.5)"/>
  </g>
</svg>
